Beyond the Rocks (1922)

A young woman marries an older millionaire 
and then falls in love with a handsome nobleman on her honeymoon. 


Director:
Sam Wood
Writers:
Elinor Glyn (novel), Jack Cunningham (scenario)
Stars:
Rudolph Valentino, Gloria Swanson and Edythe Chapman
 
http://www.imdb.com/title/tt0012938/

Format                           : AVI
Format/Info                      : Audio Video Interleave
Format profile                   : OpenDML
File size                        : 1.32 GiB
Duration                         : 1h 20mn
Overall bit rate                 : 2 340 Kbps

Format                           : MPEG-4 Visual
Format profile                   : Simple@L3
Format settings, BVOP            : No
Format settings, QPel            : No
Format settings, GMC             : No warppoints
Format settings, Matrix          : Default
Codec ID                         : XVID
Codec ID/Hint                    : XviD
Duration                         : 1h 20mn
Bit rate                         : 2 205 Kbps
Width                            : 720 pixels
Height                           : 480 pixels
Display aspect ratio             : 1.500
Frame rate                       : 29.970 fps
Standard                         : NTSC
Resolution                       : 24 bits
Colorimetry                      : 4:2:0
Scan type                        : Progressive
Bits/(Pixel*Frame)               : 0.213
Stream size                      : 1.24 GiB (94%)
Writing library                  : ZJMedia MPEG Encoder

Format                           : MPEG Audio
Format version                   : Version 1
Format profile                   : Layer 3
Codec ID                         : 55
Codec ID/Hint                    : MP3
Duration                         : 1h 20mn
Bit rate mode                    : Constant
Bit rate                         : 128 Kbps
Channel(s)                       : 2 channels
Sampling rate                    : 44.1 KHz
Resolution                       : 16 bits
Stream size                      : 73.7 MiB (5%)
Alignment                        : Split accross interleaves
Interleave, duration             : 968 ms (29.00 video frames)
